<svg width="22" height="22" viewBox="0 0 22 22" fill="none" xmlns="http://www.w3.org/2000/svg">
<path d="M10.75 0C16.6871 0 21.5 4.81294 21.5 10.75C21.5 16.687 16.687 21.5 10.75 21.5C7.74313 21.5 5.02339 20.2645 3.07324 18.2754C2.78328 17.9796 2.78822 17.5048 3.08398 17.2148C3.37978 16.9249 3.85457 16.9288 4.14453 17.2246C5.8242 18.938 8.16227 20 10.75 20C15.8586 20 20 15.8586 20 10.75C20 5.64137 15.8586 1.5 10.75 1.5C5.64137 1.5 1.5 5.64137 1.5 10.75C1.5 11.3844 1.56335 12.0033 1.68457 12.6006C1.76692 13.0064 1.50536 13.4028 1.09961 13.4854C0.693753 13.5677 0.297344 13.3052 0.214844 12.8994C0.0737596 12.2044 3.78636e-06 11.4853 0 10.75C0 4.81294 4.81294 0 10.75 0ZM10.75 6C11.1642 6 11.5 6.33579 11.5 6.75V10.3486L14.166 12.126C14.5106 12.3557 14.6038 12.8214 14.374 13.166C14.1443 13.5106 13.6786 13.6038 13.334 13.374L10.334 11.374C10.1254 11.2349 10 11.0007 10 10.75V6.75C10 6.33579 10.3358 6 10.75 6Z" fill="white"/>
</svg>
