<svg width="21" height="22" viewBox="0 0 21 22" fill="none" xmlns="http://www.w3.org/2000/svg">
<path d="M10.2866 0C12.7088 0 14.7052 1.81328 14.9976 4.15625C15.0798 4.17277 15.1605 4.18973 15.2397 4.20996C17.467 4.77906 19.2513 6.44306 19.9751 8.625C20.2496 9.45268 20.3138 10.4403 20.4331 12.1367C20.5684 14.0607 20.6533 15.1779 20.4604 16.1133C19.9505 18.5857 18.104 20.5671 15.6733 21.249C14.7538 21.5069 13.6333 21.5 11.7046 21.5H8.86865C6.93992 21.5 5.81945 21.507 4.8999 21.249C2.46939 20.567 0.622665 18.5856 0.112793 16.1133C-0.080021 15.1779 0.00485705 14.0607 0.140137 12.1367C0.259412 10.4404 0.323636 9.45266 0.598145 8.625C1.32192 6.44311 3.1063 4.77914 5.3335 4.20996C5.41202 4.1899 5.49225 4.17266 5.57373 4.15625C5.86591 1.81322 7.86448 0.000142287 10.2866 0ZM10.2866 1.5C8.74548 1.50013 7.45557 2.57312 7.12158 4.0127C7.61315 3.99969 8.18313 4 8.86865 4H11.7046C12.39 4 12.9602 3.9997 13.4517 4.0127C13.1176 2.57309 11.8278 1.5 10.2866 1.5Z" fill="white"/>
</svg>
