<svg width="24" height="24" viewBox="0 0 24 24" fill="none" xmlns="http://www.w3.org/2000/svg">
<path d="M6.7998 13.25C7.34748 13.25 7.80368 13.249 8.1748 13.2793C8.55454 13.3103 8.91091 13.3781 9.24805 13.5498C9.76549 13.8135 10.1865 14.2345 10.4502 14.752C10.6219 15.0891 10.6897 15.4455 10.7207 15.8252C10.751 16.1963 10.75 16.6525 10.75 17.2002V18.7998C10.75 19.3475 10.751 19.8037 10.7207 20.1748C10.6897 20.5545 10.6219 20.9109 10.4502 21.248C10.1865 21.7655 9.76549 22.1865 9.24805 22.4502C8.9109 22.6219 8.55454 22.6897 8.1748 22.7207C7.80368 22.751 7.34748 22.75 6.7998 22.75H5.2002C4.65252 22.75 4.19632 22.751 3.8252 22.7207C3.44546 22.6897 3.08909 22.6219 2.75195 22.4502C2.23451 22.1865 1.81346 21.7655 1.5498 21.248C1.37809 20.9109 1.31033 20.5545 1.2793 20.1748C1.24897 19.8037 1.25 19.3475 1.25 18.7998V17.2002C1.25 16.6525 1.24897 16.1963 1.2793 15.8252C1.31033 15.4455 1.37809 15.0891 1.5498 14.752C1.81346 14.2345 2.23451 13.8135 2.75195 13.5498C3.08909 13.3781 3.44546 13.3103 3.8252 13.2793C4.19632 13.249 4.65252 13.25 5.2002 13.25H6.7998ZM18.7998 13.25C19.3475 13.25 19.8037 13.249 20.1748 13.2793C20.5545 13.3103 20.9109 13.3781 21.248 13.5498C21.7655 13.8135 22.1865 14.2345 22.4502 14.752C22.6219 15.0891 22.6897 15.4455 22.7207 15.8252C22.751 16.1963 22.75 16.6525 22.75 17.2002V18.7998C22.75 19.3475 22.751 19.8037 22.7207 20.1748C22.6897 20.5545 22.6219 20.9109 22.4502 21.248C22.1865 21.7655 21.7655 22.1865 21.248 22.4502C20.9109 22.6219 20.5545 22.6897 20.1748 22.7207C19.8037 22.751 19.3475 22.75 18.7998 22.75H17.2002C16.6525 22.75 16.1963 22.751 15.8252 22.7207C15.4455 22.6897 15.0891 22.6219 14.752 22.4502C14.2345 22.1865 13.8135 21.7655 13.5498 21.248C13.3781 20.9109 13.3103 20.5545 13.2793 20.1748C13.249 19.8037 13.25 19.3475 13.25 18.7998V17.2002C13.25 16.6525 13.249 16.1963 13.2793 15.8252C13.3103 15.4455 13.3781 15.0891 13.5498 14.752C13.8135 14.2345 14.2345 13.8135 14.752 13.5498C15.0891 13.3781 15.4455 13.3103 15.8252 13.2793C16.1963 13.249 16.6525 13.25 17.2002 13.25H18.7998ZM6.7998 1.25C7.34748 1.25 7.80368 1.24897 8.1748 1.2793C8.55454 1.31033 8.91091 1.37809 9.24805 1.5498C9.76549 1.81346 10.1865 2.23451 10.4502 2.75195C10.6219 3.08909 10.6897 3.44546 10.7207 3.8252C10.751 4.19632 10.75 4.65252 10.75 5.2002V6.7998C10.75 7.34748 10.751 7.80368 10.7207 8.1748C10.6897 8.55454 10.6219 8.9109 10.4502 9.24805C10.1865 9.76549 9.76549 10.1865 9.24805 10.4502C8.9109 10.6219 8.55454 10.6897 8.1748 10.7207C7.80368 10.751 7.34748 10.75 6.7998 10.75H5.2002C4.65252 10.75 4.19632 10.751 3.8252 10.7207C3.44546 10.6897 3.08909 10.6219 2.75195 10.4502C2.23451 10.1865 1.81346 9.76549 1.5498 9.24805C1.37809 8.91091 1.31033 8.55454 1.2793 8.1748C1.24897 7.80368 1.25 7.34748 1.25 6.7998V5.2002C1.25 4.65252 1.24897 4.19632 1.2793 3.8252C1.31033 3.44546 1.37809 3.08909 1.5498 2.75195C1.81346 2.23451 2.23451 1.81346 2.75195 1.5498C3.08909 1.37809 3.44546 1.31033 3.8252 1.2793C4.19632 1.24897 4.65252 1.25 5.2002 1.25H6.7998ZM18.7998 1.25C19.3475 1.25 19.8037 1.24897 20.1748 1.2793C20.5545 1.31033 20.9109 1.37809 21.248 1.5498C21.7655 1.81346 22.1865 2.23451 22.4502 2.75195C22.6219 3.08909 22.6897 3.44546 22.7207 3.8252C22.751 4.19632 22.75 4.65252 22.75 5.2002V6.7998C22.75 7.34748 22.751 7.80368 22.7207 8.1748C22.6897 8.55454 22.6219 8.9109 22.4502 9.24805C22.1865 9.76549 21.7655 10.1865 21.248 10.4502C20.9109 10.6219 20.5545 10.6897 20.1748 10.7207C19.8037 10.751 19.3475 10.75 18.7998 10.75H17.2002C16.6525 10.75 16.1963 10.751 15.8252 10.7207C15.4455 10.6897 15.0891 10.6219 14.752 10.4502C14.2345 10.1865 13.8135 9.76549 13.5498 9.24805C13.3781 8.91091 13.3103 8.55454 13.2793 8.1748C13.249 7.80368 13.25 7.34748 13.25 6.7998V5.2002C13.25 4.65252 13.249 4.19632 13.2793 3.8252C13.3103 3.44546 13.3781 3.08909 13.5498 2.75195C13.8135 2.23451 14.2345 1.81346 14.752 1.5498C15.0891 1.37809 15.4455 1.31033 15.8252 1.2793C16.1963 1.24897 16.6525 1.25 17.2002 1.25H18.7998Z" fill="white"/>
</svg>
