<svg width="18" height="12" viewBox="0 0 18 12" fill="none" xmlns="http://www.w3.org/2000/svg">
<path fill-rule="evenodd" clip-rule="evenodd" d="M16.6986 0C17.2507 0.00016734 17.6986 0.447819 17.6986 1V11C17.6986 11.5522 17.2507 11.9998 16.6986 12H5.16635C4.86986 11.9999 4.5887 11.8683 4.39877 11.6406L0.231779 6.64062C-0.0772596 6.26978 -0.0772596 5.73022 0.231779 5.35938L4.39877 0.359375C4.5887 0.131723 4.86986 8.62959e-05 5.16635 0H16.6986ZM12.9447 3C12.8459 3.00004 12.7477 3.01964 12.6566 3.05762C12.5655 3.09564 12.483 3.15158 12.4134 3.22168L10.6986 4.94434L8.98373 3.22168C8.84271 3.08066 8.65094 3.00098 8.45151 3.00098C8.25215 3.00098 8.06126 3.08076 7.92026 3.22168C7.77931 3.36263 7.69964 3.55361 7.69955 3.75293C7.69955 3.95237 7.77923 4.14413 7.92026 4.28516L9.64194 6L7.92026 7.71484C7.85006 7.78446 7.79421 7.86772 7.75619 7.95898C7.7182 8.05022 7.69858 8.14824 7.69858 8.24707C7.69862 8.34582 7.71821 8.44399 7.75619 8.53516C7.79421 8.62624 7.85018 8.70881 7.92026 8.77832C7.98982 8.84842 8.07226 8.90439 8.16342 8.94238C8.25468 8.9804 8.35265 9 8.45151 9C8.55037 9 8.64833 8.9804 8.73959 8.94238C8.83083 8.90436 8.91412 8.8485 8.98373 8.77832L10.6986 7.05566L12.4134 8.77832C12.483 8.84842 12.5655 8.90437 12.6566 8.94238C12.7477 8.98036 12.8459 8.99996 12.9447 9C13.0435 9 13.1416 8.98034 13.2328 8.94238C13.324 8.90436 13.4073 8.84851 13.4769 8.77832C13.547 8.70879 13.603 8.62626 13.641 8.53516C13.6789 8.44399 13.6985 8.34582 13.6986 8.24707C13.6986 8.14832 13.6789 8.05015 13.641 7.95898C13.6029 7.86772 13.5471 7.78446 13.4769 7.71484L11.7542 6L13.4769 4.28516C13.5471 4.21554 13.6029 4.13228 13.641 4.04102C13.6789 3.94985 13.6986 3.85168 13.6986 3.75293C13.6985 3.65418 13.6789 3.55601 13.641 3.46484C13.603 3.37374 13.547 3.29121 13.4769 3.22168C13.4073 3.15149 13.324 3.09564 13.2328 3.05762C13.1416 3.01966 13.0435 3 12.9447 3Z" fill="white"/>
</svg>
