<svg width="24" height="24" viewBox="0 0 24 24" fill="none" xmlns="http://www.w3.org/2000/svg">
<path d="M15 1.25C16.5188 1.25 17.75 2.48122 17.75 4V4.5C17.75 4.91421 17.4142 5.25 17 5.25C16.5858 5.25 16.25 4.91421 16.25 4.5V4C16.25 3.30964 15.6904 2.75 15 2.75H11.7998C10.9475 2.75 10.3532 2.75029 9.89062 2.78809C9.4368 2.82517 9.17602 2.89449 8.97852 2.99512C8.55515 3.21083 8.21083 3.55515 7.99512 3.97852C7.89449 4.17602 7.82517 4.4368 7.78809 4.89062C7.75029 5.35322 7.75 5.94745 7.75 6.7998V7.26074C8.23485 7.25095 8.78149 7.25 9.40039 7.25H14.5996C15.7072 7.25 16.5835 7.24909 17.2881 7.30664C18.0014 7.36492 18.6051 7.48682 19.1562 7.76758C20.05 8.22298 20.777 8.94998 21.2324 9.84375C21.5132 10.3949 21.6351 10.9986 21.6934 11.7119C21.7509 12.4165 21.75 13.2928 21.75 14.4004V15.5996C21.75 16.7072 21.7509 17.5835 21.6934 18.2881C21.6351 19.0014 21.5132 19.6051 21.2324 20.1562C20.777 21.05 20.05 21.777 19.1562 22.2324C18.6051 22.5132 18.0014 22.6351 17.2881 22.6934C16.5835 22.7509 15.7072 22.75 14.5996 22.75H9.40039C8.29277 22.75 7.41651 22.7509 6.71191 22.6934C5.99862 22.6351 5.39487 22.5132 4.84375 22.2324C3.94998 21.777 3.22298 21.05 2.76758 20.1562C2.48682 19.6051 2.36492 19.0014 2.30664 18.2881C2.24909 17.5835 2.25 16.7072 2.25 15.5996V14.4004C2.25 13.2928 2.24909 12.4165 2.30664 11.7119C2.36492 10.9986 2.48682 10.3949 2.76758 9.84375C3.22298 8.94998 3.94998 8.22298 4.84375 7.76758C5.27184 7.54949 5.73172 7.42746 6.25 7.35645V6.7998C6.25 5.97222 6.24903 5.30638 6.29297 4.76855C6.33763 4.22195 6.43286 3.74205 6.65918 3.29785C7.0187 2.59224 7.59224 2.0187 8.29785 1.65918C8.74205 1.43286 9.22195 1.33763 9.76855 1.29297C10.3064 1.24903 10.9722 1.25 11.7998 1.25H15ZM12 13.25C11.5858 13.25 11.25 13.5858 11.25 14V16C11.25 16.4142 11.5858 16.75 12 16.75C12.4142 16.75 12.75 16.4142 12.75 16V14C12.75 13.5858 12.4142 13.25 12 13.25Z" fill="white"/>
</svg>
